<?xml version="1.0" encoding="utf-8"?>
<!-- Generator: Adobe Illustrator 19.2.0, SVG Export Plug-In . SVG Version: 6.00 Build 0)  -->
<svg version="1.1" id="Layer_1" xmlns="http://www.w3.org/2000/svg" xmlns:xlink="http://www.w3.org/1999/xlink" x="0px" y="0px"
	 viewBox="0 0 572 191" style="enable-background:new 0 0 572 191;" xml:space="preserve">
<style type="text/css">
	.st0{fill:#FFFFFF;}
</style>
<path class="st0" d="M567.7,17.4c-0.2-1.1-0.9-1.8-2-2.1c-1.6-0.4-3.2-0.1-4.9,0.9c-1.7,1-3,2.1-4,3.2c-2.3,2.6-4.3,5.4-5.9,8.4
	c-1.6,3-3.2,6-4.7,9.1c-1.6,3.1-3.1,6.2-4.6,9.4c-1.5,3.2-2.9,6.3-4.3,9.5c-5.1,11.6-9.9,24.1-14.5,37.4c-0.4,1.1-1.1,3.6-2.1,7.6
	c-1,4-2.1,8.2-3.3,12.6c-1.2,4.4-2.3,8.3-3.4,11.7c-1.1,3.4-1.9,5-2.4,4.9c-0.6-0.1-1.2-1.9-1.9-5.4c-0.7-3.4-1.5-7.5-2.2-12.3
	c-0.8-4.7-1.5-9.6-2.2-14.7c-0.7-5-1.3-9.2-1.7-12.5c-0.9-6.5-1.7-13.1-2.2-19.6c-0.6-6.6-0.9-13.2-1-19.9c-0.1-5-0.1-10.1,0.2-15.2
	c0.3-5.2,1.2-10.2,2.7-15c0.6-1.9,0.1-2.5-1.6-1.8c-1.7,0.7-2.8,1.3-3.4,1.7c-1.7,1.2-3.3,2.7-4.9,4.5c-1.6,1.7-2.7,3.6-3.4,5.5
	c-1.6,4.8-2.6,9.8-2.9,15c-0.3,5.2-0.5,10.2-0.5,15.2c0,6.7,0.3,13.5,0.8,20.2c0.1,1.5,0.3,2.9,0.4,4.3c-0.8,0.4-1.4,0.9-1.9,1.5
	c-4.8,5.1-9.8,11.6-15.3,19.3c-5.4,7.7-10.1,14.5-13.9,20.3c-1,1.5-2.6,3.7-5,6.6c-2.4,2.9-4.9,5.8-7.6,8.6
	c-0.5,0.6-1.1,1.1-1.6,1.6c0-2.1,0-4.3,0-6.4c-0.7-2-1.3-4-2.2-5.9c-4-8-10.4-12.8-18.2-15.3c0.2-1.8,0.4-3.6,0.6-5.5
	c0.8-5.9,1.8-11.3,2.8-16.1c1-4.7,2.4-10.5,4.2-17.1c1.8-6.7,3.7-12.9,6-18.8c2.2-5.9,4.6-10.7,7.2-14.5c2.6-3.8,5.2-5.2,7.9-4.2
	c1.1,0.4,2.2,1.5,3.4,3.3c1.1,1.8,2.1,3.3,2.9,4.6c1.4,2.4,4.4,1.5,9-2.7c4.6-4.1,6.1-7.7,4.3-10.7c-2.6-4.4-6.1-7.5-10.5-9.3
	c-4.4-1.8-8.7-1.3-12.9,1.6c-10.8,7.5-18.7,18.3-23.8,32.3c-5.1,14-8.9,25.5-11.4,34.6c-1.3,4.6-2.4,10.3-3.4,17.3
	c-0.1,1-0.2,2.1-0.4,3.1c-6.8,0-13.5,1.3-20.1,4.1c-0.9,0.4-2.1,1.6-2.9-0.1c-1.8-3.7-3.9-7.3-4.6-11.5c-1.1-6,0.2-11.7,2.2-17.3
	c0.5-1.3,0.9-2.7-0.8-3.5c-4-1.9-8.1-0.9-12.2,0.1c-2.8,0.7-2.7,3.6-3.2,5.7c-2.8,11.7-10,21.2-15.7,32c-1.4-3.1-2.8-5.4-3.4-8.2
	c-1.3-6.3-0.6-12.4,1.8-18.4c1.1-2.8,0.2-4.1-2.8-4.6c-2.5-0.4-5-0.1-7.5,0.2c-3,0.4-5,1.6-5.4,5c-0.1,1.4-0.5,2.9-1.1,4.2
	c-7,16.2-13.9,32.4-21.8,48.2c-0.4,0.7-0.5,1.7-1.9,1.6c-0.2-2.3-0.1-4.6,0.3-6.9c1.6-7.7,3.8-15.3,5.7-23c1-3.9-1.4-6.4-5.4-5.7
	c-0.7,0.1-1.4,0.4-2.4,0.7c0.1-1.2,0.2-2.3,0.2-3.3c0.1-3.9,0.2-8-3.4-10.5c-3.7-2.6-7.6-1.4-11.3,0.3c-5.7,2.7-10.3,6.8-14.2,11.6
	c-0.5,0.7-0.9,1.4-1.8,1.9c-7.4,4.1-14.9,8.1-22.3,12.2c-1.3,0.7-2,0.4-2.9-0.6c-2.8-2.9-5.9-5.5-9.1-8c-6.1-4.9-12.5-9.4-18.2-14.8
	c-11.5-11-13.3-23.1-5.1-36.4c2.7-4.5,6.2-8.4,10.2-11.8c19.5-16.5,41.5-28.3,66.8-33.3c10-2,20.1-2.2,30,1.1
	c9.2,3,13,9.2,11.2,18.7c-1.3,6.8-4.9,12.5-9.5,17.6c-11.5,12.6-26.1,19.6-42.7,22.3c-10.9,1.8-21.6,1.8-30.2-7.1
	c-0.5-0.5-1.1-0.8-1.8-0.5c-0.8,0.4-0.9,1.2-0.7,2c0.5,2.1,1.5,4,3,5.5c4.5,4.8,10.1,7.7,16.6,8.6c13.1,1.8,25.8-0.1,38.1-4.5
	c18-6.4,31.3-18,38.4-36c3.6-9.2,4.3-18.7-1-27.6c-4.2-7.2-11.2-10.9-18.9-13.5c-4.6-1.6-9.4-1.9-14.1-3c-5,0-10,0-15.1,0
	c-5.1,1.2-10.4,1.4-15.5,2.9c-29.1,8.7-55.8,21.7-76.2,45.1c-5.8,6.7-10.3,14.2-12,23.1c0,0.3-0.3,0.5-0.5,0.7c0,2.3,0,4.6,0,6.9
	c3.3,12.1,11.2,20.4,20.2,27.7c-6.7,0-13.3,1.4-19.7,4.1c-0.9,0.4-2.1,1.6-2.9-0.1c-1.8-3.7-3.9-7.3-4.6-11.5
	c-1.1-6,0.2-11.7,2.2-17.3c0.5-1.3,0.9-2.7-0.8-3.5c-4-1.9-8.1-0.9-12.2,0.1c-2.8,0.7-2.7,3.6-3.2,5.7c-2.8,11.7-10,21.2-15.7,32
	c-1.4-3.1-2.8-5.4-3.4-8.2c-1.3-6.3-0.6-12.4,1.8-18.4c1.1-2.8,0.2-4.1-2.8-4.6c-2.5-0.4-5-0.1-7.5,0.2c-3,0.4-5,1.6-5.4,5
	c-0.1,1.4-0.5,2.9-1.1,4.2c-7,16.2-13.9,32.4-21.8,48.2c-0.4,0.7-0.5,1.7-1.9,1.6c-0.2-2.3-0.1-4.6,0.3-6.9c1.6-7.7,3.8-15.3,5.7-23
	c1-3.9-1.4-6.4-5.4-5.7c-0.7,0.1-1.4,0.4-2.4,0.7c0.1-1.2,0.2-2.3,0.2-3.3c0.1-3.9,0.2-8-3.4-10.5c-3.7-2.6-7.6-1.4-11.3,0.3
	c-5.7,2.7-10.3,6.8-14.2,11.6c-0.5,0.7-0.9,1.4-1.8,1.9c-7.4,4.1-14.9,8.1-22.3,12.2c-1.3,0.7-2,0.4-2.9-0.6c-2.8-2.9-5.9-5.5-9.1-8
	c-6.1-4.9-12.5-9.4-18.2-14.8c-11.5-11-13.3-23.1-5.1-36.4c2.7-4.5,6.2-8.4,10.2-11.8C56.4,35,78.4,23.3,103.7,18.3
	c10-2,20.1-2.2,30,1.1c9.2,3,13,9.2,11.2,18.7c-1.3,6.8-4.9,12.5-9.5,17.6c-11.5,12.6-26.1,19.6-42.7,22.3
	c-10.9,1.8-21.6,1.8-30.2-7.1c-0.5-0.5-1.1-0.8-1.8-0.5c-0.8,0.4-0.9,1.2-0.7,2c0.5,2.1,1.5,4,3,5.5c4.5,4.8,10.1,7.7,16.6,8.6
	c13.1,1.8,25.8-0.1,38.1-4.5c18-6.4,31.3-18,38.4-36c3.6-9.2,4.3-18.7-1-27.6C151,11.3,144,7.6,136.3,5c-4.6-1.6-9.4-1.9-14.1-3
	c-5,0-10,0-15.1,0c-5.1,1.2-10.4,1.4-15.5,2.9C62.6,13.7,35.9,26.7,15.5,50c-5.8,6.7-10.3,14.2-12,23.1c0,0.3-0.3,0.5-0.5,0.7
	c0,2.3,0,4.6,0,6.9c4.3,15.9,16.4,25.1,28.8,34.2c5.5,4,11.2,7.9,16.7,11.9c3,2.2,3,2.3-0.4,4c-8.2,4.2-16,8.9-23.1,14.7
	c-6.5,5.3-12.1,11.4-13.6,20.1c-0.8,5-0.5,9.8,2,14.3c2.1,3.8,5,6.3,9.5,6.7c0.5,0.1,1.1,0.4,1.6,0.6c3.1,0,6.2,0,9.3,0
	c6.1-1.4,12-3.4,17.2-7.1c14.9-10.4,21.4-30.7,15.1-47.8c-0.4-1-1-1.9,0.4-2.7c3.9-2.2,7.8-4.5,12.2-7c-1.4,5.9-2.7,11.3-2.9,16.9
	c-0.2,7.5,1.4,14.6,5.6,20.9c3.8,5.7,10.9,5.8,15,0.2c3.3-4.5,5.3-9.8,7.6-14.9c0.4-0.8,0.7-1.6,1.2-2.3c-0.2,3.7-0.4,7.3,0.4,10.9
	c0.3,1.4,0.6,2.8,1.4,4.1c1.8,2.9,5.1,3.8,8,2c3.3-2,5.5-5.1,7.3-8.4c7.2-12.9,13.8-26,19.3-39.7c0.5-1.1,1-2.3,1.8-3.9
	c0.4,1.1,0.7,1.7,0.8,2.4c1,5.8,3.2,11.1,5.9,16.2c0.8,1.4,0.6,2.4-0.3,3.6c-4.3,6-9.5,11.4-14,17.3c-1.7,2.2-4.1,4.4-2.5,7.4
	c1.6,3.2,4.9,2.6,7.7,2.4c6.6-0.4,12.6-2.8,17.7-7.1c6-5.1,7.9-11.8,5.4-19c-1.6-4.8-1-8.3,2-12.3c3.8-5.1,6.6-10.8,9.6-16.5
	c0.3-0.6,0.7-1.1,1.4-2.3c1.2,6.9,3.1,12.9,6.2,18.4c0.7,1.3-0.5,1.7-1.2,2.3c-4.8,4.3-8.9,9.1-11.3,15.2c-1.1,2.6-1.7,5.3-1.4,8.2
	c0.4,3.3,2.5,5.2,5.8,5.2c6.3-0.1,19.4-6.7,22.5-16c1.3-4,0.7-8-0.7-11.9c-0.6-1.5-0.4-2.3,1.2-2.7c11.3-3.4,22.3-3.5,33.1,0.9
	c3.2,2.3,6.4,4.5,9.6,6.8c3,2.2,3,2.3-0.4,4c-8.2,4.2-16,8.9-23.1,14.7c-6.5,5.3-12.1,11.4-13.6,20.1c-0.8,5-0.5,9.8,2,14.3
	c2.1,3.8,5,6.3,9.5,6.7c0.5,0.1,1.1,0.4,1.6,0.6c3.1,0,6.2,0,9.3,0c6.1-1.4,12-3.4,17.2-7.1c14.9-10.4,21.4-30.7,15.1-47.8
	c-0.4-1-1-1.9,0.4-2.7c3.9-2.2,7.8-4.5,12.2-7c-1.4,5.9-2.7,11.3-2.9,16.9c-0.2,7.5,1.4,14.6,5.6,20.9c3.8,5.7,10.9,5.8,15,0.2
	c3.3-4.5,5.3-9.8,7.6-14.9c0.4-0.8,0.7-1.6,1.2-2.3c-0.2,3.7-0.4,7.3,0.4,10.9c0.3,1.4,0.6,2.8,1.4,4.1c1.8,2.9,5.1,3.8,8,2
	c3.3-2,5.5-5.1,7.3-8.4c7.2-12.9,13.8-26,19.3-39.7c0.5-1.1,1-2.3,1.8-3.9c0.4,1.1,0.7,1.7,0.8,2.4c1,5.8,3.2,11.1,5.9,16.2
	c0.8,1.4,0.6,2.4-0.3,3.6c-4.3,6-9.5,11.4-14,17.3c-1.7,2.2-4.1,4.4-2.5,7.4c1.6,3.2,4.9,2.6,7.7,2.4c6.6-0.4,12.6-2.8,17.7-7.1
	c6-5.1,7.9-11.8,5.4-19c-1.6-4.8-1-8.3,2-12.3c3.8-5.1,6.6-10.8,9.6-16.5c0.3-0.6,0.7-1.1,1.4-2.3c1.2,6.9,3.1,12.9,6.2,18.4
	c0.7,1.3-0.5,1.7-1.2,2.3c-4.8,4.3-8.9,9.1-11.3,15.2c-1.1,2.6-1.7,5.3-1.4,8.2c0.4,3.3,2.5,5.2,5.8,5.2c6.3-0.1,19.4-6.7,22.5-16
	c1.3-4,0.7-8-0.7-11.9c-0.6-1.5-0.4-2.3,1.2-2.7c5.7-1.7,11.4-2.6,17-2.5c-0.2,3.2-0.2,6.5-0.2,9.8c0.1,7.1,1.1,13.7,2.9,19.9
	c1.8,6.1,4.8,10.7,9,13.6c4.7,3.2,9.9,3.4,15.6,0.6c5.7-2.9,10.4-6,14.1-9.5c4.8-4.6,9.1-9.5,12.7-14.8c3.6-5.3,7.3-10.8,10.9-16.3
	c3.6-5.4,7.3-10.8,11.2-16.2c2-2.8,4-5.5,5.9-8.3c0,0.2,0,0.5,0.1,0.7c1.8,13.8,4,26.8,6.8,38.8c1,4.3,2.1,8.7,3.3,13.1
	c1.2,4.5,3,8.6,5.1,12.5c1.7,3,4.4,2.9,8-0.4c3.6-3.3,5.7-6,6.2-7.9c2.2-10,4.7-19.9,7.6-29.8c2.8-9.9,5.9-19.7,9.2-29.4
	c4.3-12.5,9-24.5,14.2-36.1c2.7-6.1,5.7-12.1,9-18c3.3-5.9,6.2-12,8.6-18.2C567.9,19.5,568,18.5,567.7,17.4z M58.6,142.9
	c0,13.9-10,26.9-23.1,30.1c-6.7,1.7-10.1-1.4-9.1-8.2c0.9-5.9,4-10.6,8.3-14.5c6.2-5.8,13.3-10.4,20.6-14.8c1.8-1.1,2.3-0.5,2.6,1.2
	C58.3,138.8,58.8,141,58.6,142.9z M108.2,108.5c-0.8,5.4-2.7,10.6-4.6,15.8c-2.7,7.2-5.2,14.5-8.7,21.3c-0.4,0.8-0.8,1.5-1.3,2.2
	c-0.6,0.8-1.2,1.9-2.4,1.7c-1.1-0.2-1.4-1.3-1.7-2.2c-0.9-2.6-1.1-5.3-1.2-7.7c0.2-11,3.9-20.4,10.3-28.8c1.6-2.2,3.7-3.9,6.3-4.9
	C107.5,105,108.7,105.8,108.2,108.5z M142.2,150.1c4.2-4.8,8.2-8.9,11.7-13.8C154.5,141.4,148.7,148.4,142.2,150.1z M179.1,141.5
	c-1.5,0.4-1.8-0.3-1.5-1.5c1.5-5.9,4.5-10.9,9.2-15C189.6,131,185.3,139.8,179.1,141.5z M250.9,142.9c0,13.9-10,26.9-23.1,30.1
	c-6.7,1.7-10.1-1.4-9.1-8.2c0.9-5.9,4-10.6,8.3-14.5c6.2-5.8,13.3-10.4,20.6-14.8c1.8-1.1,2.3-0.5,2.6,1.2
	C250.5,138.8,251,141,250.9,142.9z M300.4,108.5c-0.8,5.4-2.7,10.6-4.6,15.8c-2.7,7.2-5.2,14.5-8.7,21.3c-0.4,0.8-0.8,1.5-1.3,2.2
	c-0.6,0.8-1.2,1.9-2.4,1.7c-1.1-0.2-1.4-1.3-1.7-2.2c-0.9-2.6-1.1-5.3-1.2-7.7c0.2-11,3.9-20.4,10.3-28.8c1.6-2.2,3.7-3.9,6.3-4.9
	C299.7,105,300.9,105.8,300.4,108.5z M334.4,150.1c4.2-4.8,8.2-8.9,11.7-13.8C346.7,141.4,340.9,148.4,334.4,150.1z M371.3,141.5
	c-1.5,0.4-1.8-0.3-1.5-1.5c1.5-5.9,4.5-10.9,9.2-15C381.8,131,377.6,139.8,371.3,141.5z M423.5,137c-1.3-4.3-1.9-9.2-2-14.7
	c0-1,0-2,0-3c1.5,0.5,3,1.2,4.5,1.9c4.6,2.2,8,5.7,10,10.4c2.1,4.8,1.5,9.4-1.6,13.1c-1.7,1-3.1,1.2-4.2,0.8
	C427,144.1,424.7,141.2,423.5,137z"/>
</svg>
